<svg width="20" height="14" viewBox="0 0 20 14" fill="none" xmlns="http://www.w3.org/2000/svg">
<path d="M19.7082 4.29409L15.7082 0.294092C15.6149 0.200853 15.5043 0.126893 15.3824 0.0764322C15.2606 0.0259719 15.13 0 14.9982 0C14.7319 0 14.4765 0.105788 14.2882 0.294092C14.0999 0.482395 13.9941 0.73779 13.9941 1.00409C13.9941 1.27039 14.0999 1.52579 14.2882 1.71409L16.5882 4.00409H4.99819C4.73297 4.00409 4.47862 4.10945 4.29108 4.29699C4.10354 4.48452 3.99819 4.73888 3.99819 5.00409C3.99819 5.26931 4.10354 5.52366 4.29108 5.7112C4.47862 5.89873 4.73297 6.00409 4.99819 6.00409H18.9982C19.1956 6.00311 19.3883 5.9437 19.552 5.83337C19.7158 5.72304 19.8432 5.56671 19.9182 5.38409C19.9948 5.20198 20.0157 5.00127 19.9783 4.80728C19.9409 4.61329 19.8469 4.43472 19.7082 4.29409ZM14.9982 8.00409H0.998186C0.800761 8.00508 0.608045 8.06448 0.444325 8.17481C0.280604 8.28515 0.153206 8.44147 0.0781863 8.62409C0.0016069 8.8062 -0.0193158 9.00692 0.0180584 9.2009C0.0554325 9.39489 0.149429 9.57347 0.288186 9.71409L4.28819 13.7141C4.38115 13.8078 4.49175 13.8822 4.61361 13.933C4.73547 13.9838 4.86617 14.0099 4.99819 14.0099C5.1302 14.0099 5.2609 13.9838 5.38276 13.933C5.50462 13.8822 5.61522 13.8078 5.70819 13.7141C5.80192 13.6211 5.87631 13.5105 5.92708 13.3887C5.97785 13.2668 6.00398 13.1361 6.00398 13.0041C6.00398 12.8721 5.97785 12.7414 5.92708 12.6195C5.87631 12.4977 5.80192 12.3871 5.70819 12.2941L3.40819 10.0041H14.9982C15.2634 10.0041 15.5178 9.89874 15.7053 9.7112C15.8928 9.52366 15.9982 9.26931 15.9982 9.00409C15.9982 8.73887 15.8928 8.48452 15.7053 8.29699C15.5178 8.10945 15.2634 8.00409 14.9982 8.00409Z" fill="#35312E"/>
</svg>
