<svg width="23" height="23" viewBox="0 0 23 23" fill="none" xmlns="http://www.w3.org/2000/svg">
<path d="M13.6562 6.01306V1.17444C13.6562 0.832312 13.7684 0.551042 13.9926 0.330625C14.2169 0.110208 14.4948 0 14.8264 0H21.8414C22.1739 0 22.4499 0.110208 22.6694 0.330625C22.8888 0.551042 22.999 0.832312 23 1.17444V6.01306C23 6.35615 22.8879 6.63742 22.6636 6.85688C22.4394 7.07729 22.1615 7.1875 21.8299 7.1875H14.8149C14.4833 7.1875 14.2073 7.07729 13.9869 6.85688C13.7665 6.63646 13.6562 6.35519 13.6562 6.01306ZM0 10.35V1.15C0 0.824167 0.112125 0.551042 0.336375 0.330625C0.560625 0.110208 0.838542 0 1.17013 0H8.18513C8.51767 0 8.79367 0.110208 9.01313 0.330625C9.23258 0.551042 9.34279 0.824167 9.34375 1.15V10.35C9.34375 10.6758 9.23162 10.949 9.00737 11.1694C8.78312 11.3898 8.50521 11.5 8.17362 11.5H1.15863C0.827042 11.5 0.551042 11.3898 0.330625 11.1694C0.110208 10.949 0 10.6758 0 10.35ZM13.6562 21.85V12.65C13.6562 12.3242 13.7684 12.051 13.9926 11.8306C14.2169 11.6102 14.4948 11.5 14.8264 11.5H21.8414C22.1739 11.5 22.4499 11.6102 22.6694 11.8306C22.8888 12.051 22.999 12.3242 23 12.65V21.85C23 22.1758 22.8879 22.449 22.6636 22.6694C22.4394 22.8898 22.1615 23 21.8299 23H14.8149C14.4833 23 14.2073 22.8898 13.9869 22.6694C13.7665 22.449 13.6562 22.1758 13.6562 21.85ZM0 21.8256V16.9869C0 16.6448 0.112125 16.3635 0.336375 16.1431C0.560625 15.9227 0.838542 15.8125 1.17013 15.8125H8.18513C8.51767 15.8125 8.79367 15.9227 9.01313 16.1431C9.23258 16.3635 9.34279 16.6448 9.34375 16.9869V21.8256C9.34375 22.1686 9.23162 22.4499 9.00737 22.6694C8.78312 22.8898 8.50521 23 8.17362 23H1.15863C0.827042 23 0.551042 22.8898 0.330625 22.6694C0.110208 22.449 0 22.1677 0 21.8256ZM1.4375 10.0625H7.90625V1.4375H1.4375V10.0625ZM15.0938 21.5625H21.5625V12.9375H15.0938V21.5625ZM15.0938 5.75H21.5625V1.4375H15.0938V5.75ZM1.4375 21.5625H7.90625V17.25H1.4375V21.5625Z" fill="#1E1E1E"/>
</svg>
