<svg width="21" height="25" viewBox="0 0 21 25" fill="none" xmlns="http://www.w3.org/2000/svg">
<path fill-rule="evenodd" clip-rule="evenodd" d="M10.7305 23.9305L10.717 23.9327L10.637 23.9721L10.6145 23.9766L10.5988 23.9721L10.5188 23.9316C10.5068 23.9286 10.4978 23.9308 10.4918 23.9383L10.4873 23.9496L10.4682 24.4314L10.4738 24.4539L10.4851 24.4686L10.6021 24.5519L10.619 24.5564L10.6325 24.5519L10.7496 24.4686L10.7631 24.4505L10.7676 24.4314L10.7485 23.9507C10.7455 23.9387 10.7395 23.932 10.7305 23.9305ZM11.0276 23.8033L11.0119 23.8055L10.8048 23.9102L10.7935 23.9215L10.7901 23.9338L10.8104 24.4179L10.816 24.4314L10.825 24.4404L11.0513 24.544C11.0655 24.5477 11.0764 24.5447 11.0839 24.535L11.0884 24.5192L11.0502 23.828C11.0464 23.8138 11.0389 23.8055 11.0276 23.8033ZM10.2228 23.8055C10.2178 23.8025 10.2119 23.8015 10.2062 23.8028C10.2005 23.804 10.1956 23.8074 10.1924 23.8123L10.1856 23.828L10.1473 24.5192C10.1481 24.5327 10.1545 24.5417 10.1665 24.5462L10.1834 24.544L10.4096 24.4393L10.4209 24.4303L10.4243 24.4179L10.4445 23.9338L10.4412 23.9203L10.4299 23.9091L10.2228 23.8055Z" fill="#868383"/>
<path fill-rule="evenodd" clip-rule="evenodd" d="M2.18182 7.88002C2.18182 5.79011 3.01204 3.78579 4.48982 2.308C5.96761 0.830213 7.97193 0 10.0618 0C12.1517 0 14.1561 0.830213 15.6338 2.308C17.1116 3.78579 17.9419 5.79011 17.9419 7.88002V12.1172L19.9929 16.2193C20.0873 16.4081 20.1319 16.6179 20.1224 16.8288C20.1129 17.0397 20.0497 17.2447 19.9387 17.4242C19.8277 17.6038 19.6727 17.752 19.4883 17.8548C19.3039 17.9576 19.0963 18.0115 18.8852 18.0115H14.4229C14.1725 18.9776 13.6083 19.8332 12.819 20.4441C12.0297 21.0549 11.0599 21.3863 10.0618 21.3863C9.06378 21.3863 8.09398 21.0549 7.30466 20.4441C6.51535 19.8332 5.95121 18.9776 5.70081 18.0115H1.23847C1.02737 18.0115 0.819774 17.9576 0.635388 17.8548C0.451002 17.752 0.295952 17.6038 0.184964 17.4242C0.0739765 17.2447 0.0107368 17.0397 0.001251 16.8288C-0.00823477 16.6179 0.0363485 16.4081 0.130766 16.2193L2.18182 12.1172V7.88002ZM8.1121 18.0115C8.30971 18.3537 8.59392 18.6379 8.93617 18.8355C9.27842 19.0331 9.66665 19.1371 10.0618 19.1371C10.457 19.1371 10.8453 19.0331 11.1875 18.8355C11.5298 18.6379 11.814 18.3537 12.0116 18.0115H8.1121ZM10.0618 2.25143C8.56904 2.25143 7.13739 2.84444 6.08183 3.90001C5.02626 4.95557 4.43325 6.38722 4.43325 7.88002V12.1172C4.43323 12.4666 4.35191 12.8111 4.19573 13.1236L2.87864 15.76H17.2462L15.9291 13.1236C15.7725 12.8112 15.6908 12.4667 15.6904 12.1172V7.88002C15.6904 6.38722 15.0974 4.95557 14.0418 3.90001C12.9863 2.84444 11.5546 2.25143 10.0618 2.25143Z" fill="#868383"/>
</svg>
