<svg width="23" height="23" viewBox="0 0 23 23" fill="none" xmlns="http://www.w3.org/2000/svg">
<path d="M13.1939 7.98482C13.1939 7.75153 13.1012 7.52781 12.9362 7.36285C12.7713 7.1979 12.5476 7.10522 12.3143 7.10522H5.27754C5.04426 7.10522 4.82053 7.1979 4.65558 7.36285C4.49062 7.52781 4.39795 7.75153 4.39795 7.98482C4.39795 8.2181 4.49062 8.44182 4.65558 8.60678C4.82053 8.77174 5.04426 8.86441 5.27754 8.86441H12.3143C12.5476 8.86441 12.7713 8.77174 12.9362 8.60678C13.1012 8.44182 13.1939 8.2181 13.1939 7.98482ZM12.0211 11.5032C12.0211 11.2699 11.9284 11.0462 11.7634 10.8812C11.5985 10.7163 11.3748 10.6236 11.1415 10.6236H5.27754C5.04426 10.6236 4.82053 10.7163 4.65558 10.8812C4.49062 11.0462 4.39795 11.2699 4.39795 11.5032C4.39795 11.7365 4.49062 11.9602 4.65558 12.1251C4.82053 12.2901 5.04426 12.3828 5.27754 12.3828H11.1415C11.3748 12.3828 11.5985 12.2901 11.7634 12.1251C11.9284 11.9602 12.0211 11.7365 12.0211 11.5032ZM12.3143 14.142C12.5476 14.142 12.7713 14.2346 12.9362 14.3996C13.1012 14.5645 13.1939 14.7883 13.1939 15.0215C13.1939 15.2548 13.1012 15.4786 12.9362 15.6435C12.7713 15.8085 12.5476 15.9011 12.3143 15.9011H5.27754C5.04426 15.9011 4.82053 15.8085 4.65558 15.6435C4.49062 15.4786 4.39795 15.2548 4.39795 15.0215C4.39795 14.7883 4.49062 14.5645 4.65558 14.3996C4.82053 14.2346 5.04426 14.142 5.27754 14.142H12.3143Z" fill="#868383"/>
<path fill-rule="evenodd" clip-rule="evenodd" d="M4.39796 22.0584H19.6442C20.4996 22.0584 21.3199 21.7186 21.9247 21.1137C22.5296 20.5089 22.8694 19.6886 22.8694 18.8332V12.3828C22.8694 12.1496 22.7767 11.9258 22.6117 11.7609C22.4468 11.5959 22.2231 11.5033 21.9898 11.5033H18.1782V2.3473C18.1782 0.678421 16.2912 -0.292647 14.9331 0.677249L14.7279 0.823847C14.2784 1.14288 13.7407 1.31387 13.1896 1.31303C12.6385 1.31219 12.1013 1.13956 11.6528 0.819156C10.9041 0.286321 10.008 0 9.08911 0C8.17018 0 7.27408 0.286321 6.52539 0.819156C6.07694 1.13956 5.53977 1.31219 4.98862 1.31303C4.43747 1.31387 3.89977 1.14288 3.45034 0.823847L3.24511 0.677249C1.88702 -0.292647 0 0.677248 0 2.3473V17.6604C0 18.8268 0.463355 19.9454 1.28813 20.7702C2.11291 21.595 3.23155 22.0584 4.39796 22.0584ZM7.54806 2.24996C7.99835 1.93031 8.5369 1.75859 9.08911 1.75859C9.64132 1.75859 10.1799 1.93031 10.6302 2.24996C11.3769 2.78372 12.2715 3.07116 13.1894 3.07221C14.1073 3.07326 15.0026 2.78787 15.7505 2.25582L15.9558 2.10922C15.9996 2.07804 16.0511 2.0595 16.1047 2.05563C16.1584 2.05176 16.212 2.06271 16.2599 2.08729C16.3077 2.11187 16.3478 2.14912 16.3759 2.19498C16.404 2.24084 16.4189 2.29353 16.419 2.3473V18.8332C16.419 19.3609 16.5457 19.8594 16.7709 20.2992H4.39796C3.69811 20.2992 3.02693 20.0212 2.53206 19.5263C2.0372 19.0314 1.75918 18.3602 1.75918 17.6604V2.3473C1.75932 2.29353 1.77425 2.24084 1.80232 2.19498C1.83039 2.14912 1.87054 2.11187 1.91836 2.08729C1.96618 2.06271 2.01984 2.05176 2.07347 2.05563C2.1271 2.0595 2.17863 2.07804 2.22243 2.10922L2.42767 2.25582C3.17561 2.78787 4.07093 3.07326 4.98881 3.07221C5.90668 3.07116 6.80134 2.78372 7.54806 2.24996ZM18.1782 18.8332V13.2624H21.1102V18.8332C21.1102 19.222 20.9557 19.5949 20.6808 19.8698C20.4059 20.1447 20.033 20.2992 19.6442 20.2992C19.2554 20.2992 18.8825 20.1447 18.6076 19.8698C18.3327 19.5949 18.1782 19.222 18.1782 18.8332Z" fill="#868383"/>
</svg>
