<svg width="22" height="22" viewBox="0 0 22 22" fill="none" xmlns="http://www.w3.org/2000/svg">
<path fill-rule="evenodd" clip-rule="evenodd" d="M11.2558 1.62084C10.7851 1.54102 10.1425 1.53488 8.98415 1.53488C7.02258 1.53488 5.62788 1.53693 4.57189 1.67814C3.53636 1.81628 2.94185 2.07721 2.50901 2.50902C2.07618 2.94084 1.81627 3.53535 1.67813 4.56474C1.53692 5.61665 1.53488 7.00214 1.53488 8.95451V13.0475C1.53488 14.9979 1.53692 16.3833 1.67813 17.4353C1.81627 18.4647 2.07618 19.0581 2.50901 19.492C2.94185 19.9238 3.53533 20.1837 4.56473 20.3219C5.61663 20.4641 7.00211 20.4651 8.95345 20.4651H13.0465C14.9978 20.4651 16.3843 20.4631 17.4362 20.3219C18.4646 20.1837 19.0581 19.9238 19.4909 19.491C19.9237 19.0581 20.1836 18.4647 20.3218 17.4353C20.463 16.3844 20.465 14.9979 20.465 13.0465V12.5993C20.465 11.0276 20.4548 10.2827 20.287 9.72093H17.0842C15.9249 9.72093 14.9784 9.72093 14.2293 9.62065C13.4486 9.51526 12.7712 9.28809 12.2299 8.74679C11.6886 8.20549 11.4614 7.52912 11.356 6.74633C11.2558 5.99935 11.2558 5.05181 11.2558 3.89144V1.62084ZM12.7906 2.41488V3.83721C12.7906 5.06512 12.7927 5.90828 12.8776 6.54167C12.9595 7.15358 13.1068 7.4534 13.3156 7.66112C13.5243 7.86884 13.8231 8.01721 14.435 8.09907C15.0684 8.184 15.9116 8.18605 17.1395 8.18605H19.2064C18.8137 7.81217 18.4146 7.44511 18.0092 7.08502L13.9582 3.43916C13.576 3.08979 13.1868 2.74829 12.7906 2.41488ZM9.13252 0C10.5497 0 11.4655 6.09908e-08 12.3077 0.322326C13.1498 0.645674 13.8272 1.25554 14.876 2.2L14.9855 2.29823L19.0356 5.94409L19.1635 6.0587C20.375 7.14847 21.1588 7.85349 21.5794 8.79898C21.9999 9.74447 22.0009 10.7984 21.9999 12.4274V13.1038C21.9999 14.9846 21.9999 16.4744 21.8434 17.6399C21.6817 18.8392 21.342 19.8102 20.5766 20.5767C19.8102 21.342 18.8391 21.6818 17.6398 21.8434C16.4733 22 14.9845 22 13.1038 22H8.89615C7.01541 22 5.52556 22 4.36008 21.8434C3.16082 21.6818 2.18976 21.342 1.42334 20.5767C0.657951 19.8102 0.318231 18.8392 0.156558 17.6399C0 16.4734 0 14.9846 0 13.1038V8.89721C0 7.01646 0 5.5266 0.156558 4.36112C0.318231 3.16186 0.657951 2.19079 1.42334 1.42437C2.19078 0.657953 3.16389 0.319256 4.36826 0.157581C5.53886 0.0010233 7.03588 0.0010233 8.92685 0.0010233H9.13354" fill="#868383"/>
</svg>
