<svg width="167" height="93" viewBox="0 0 167 93" fill="none" xmlns="http://www.w3.org/2000/svg">
<path d="M39.9584 39.5914H80.9824L76.1874 63.24H35.2966L39.9584 39.5914ZM31.434 93H0L18.6473 0H94.4351L89.6401 23.6486H45.2862L31.434 93Z" fill="#1E1E1E"/>
<path d="M65.5056 93L84.1529 0H133.568C144.668 0 153.015 1.94857 158.609 5.84572C164.203 9.65429 167 15.1014 167 22.1871C167 27.9443 165.313 32.8157 161.939 36.8014C158.653 40.7871 154.08 43.8429 148.22 45.9686C142.448 48.0057 135.788 49.0243 128.24 49.0243L132.236 41.85C141.737 41.85 149.196 43.7543 154.613 47.5629C160.118 51.2829 162.871 56.5529 162.871 63.3729C162.871 70.1929 160.873 75.8171 156.877 80.2457C152.97 84.5857 147.731 87.8186 141.16 89.9443C134.589 91.9814 127.308 93 119.316 93H65.5056ZM100.802 71.0786H121.048C124.156 71.0786 126.686 70.37 128.64 68.9529C130.682 67.5357 131.703 65.41 131.703 62.5757C131.703 60.5386 130.904 59.0329 129.306 58.0586C127.796 56.9957 126.02 56.4643 123.978 56.4643H101.601L105.73 35.7386H123.845C126.242 35.7386 128.196 35.4286 129.705 34.8086C131.304 34.1 132.458 33.17 133.169 32.0186C133.879 30.7786 134.234 29.3171 134.234 27.6343C134.234 25.6857 133.479 24.2686 131.97 23.3829C130.549 22.4086 128.551 21.9214 125.976 21.9214H110.659L100.802 71.0786Z" fill="#1E1E1E"/>
</svg>
